<svg width="23" height="23" viewBox="0 0 23 23" fill="none" xmlns="http://www.w3.org/2000/svg">
<g clip-path="url(#clip0)">
<path d="M11.2 22.4C8.85208 22.4 6.71562 21.7219 4.79062 20.3656C4.28021 20.9927 3.60208 21.4885 2.75625 21.8531C1.91042 22.2177 0.991667 22.4 0 22.4C0.364583 22.4 0.681771 21.8422 0.951562 20.7266C1.22135 19.6109 1.37083 18.2365 1.4 16.6031C0.466667 14.926 0 13.125 0 11.2C0 9.17292 0.499479 7.29896 1.49844 5.57812C2.4974 3.85729 3.85729 2.4974 5.57812 1.49844C7.29896 0.499479 9.17292 0 11.2 0C13.2271 0 15.101 0.499479 16.8219 1.49844C18.5427 2.4974 19.9026 3.85729 20.9016 5.57812C21.9005 7.29896 22.4 9.17292 22.4 11.2C22.4 13.2271 21.9005 15.101 20.9016 16.8219C19.9026 18.5427 18.5427 19.9026 16.8219 20.9016C15.101 21.9005 13.2271 22.4 11.2 22.4ZM7.01094 9.8C6.62448 9.8 6.29271 9.9349 6.01562 10.2047C5.73854 10.4745 5.6 10.8062 5.6 11.2C5.6 11.5937 5.73854 11.9255 6.01562 12.1953C6.29271 12.4651 6.62448 12.6 7.01094 12.6C7.3974 12.6 7.72552 12.4615 7.99531 12.1844C8.2651 11.9073 8.4 11.5792 8.4 11.2C8.4 10.8208 8.2651 10.4927 7.99531 10.2156C7.72552 9.93854 7.3974 9.8 7.01094 9.8ZM11.2109 9.8C10.8245 9.8 10.4927 9.9349 10.2156 10.2047C9.93854 10.4745 9.8 10.8026 9.8 11.1891C9.8 11.5755 9.93854 11.9073 10.2156 12.1844C10.4927 12.4615 10.8245 12.6 11.2109 12.6C11.5974 12.6 11.9255 12.4651 12.1953 12.1953C12.4651 11.9255 12.6 11.5937 12.6 11.2C12.6 10.8062 12.4651 10.4745 12.1953 10.2047C11.9255 9.9349 11.5974 9.8 11.2109 9.8ZM15.4109 9.8C15.0245 9.8 14.6927 9.93854 14.4156 10.2156C14.1385 10.4927 14 10.8208 14 11.2C14 11.5792 14.1385 11.9073 14.4156 12.1844C14.6927 12.4615 15.0245 12.6 15.4109 12.6C15.7974 12.6 16.1255 12.4615 16.3953 12.1844C16.6651 11.9073 16.8 11.5792 16.8 11.2C16.8 10.8208 16.6651 10.4927 16.3953 10.2156C16.1255 9.93854 15.7974 9.8 15.4109 9.8Z" fill="white"/>
</g>
<defs>
<clipPath id="clip0">
<rect width="22.4" height="22.4" fill="white"/>
</clipPath>
</defs>
</svg>
