<svg width="80" height="80" viewBox="0 0 80 80" fill="none" xmlns="http://www.w3.org/2000/svg">
<path d="M11.9882 24.0387L40.5 7.57735L69.0119 24.0387V56.9613L40.5 73.4226L11.9882 56.9613V24.0387Z" stroke="black"/>
<path d="M40.5 7L40.5 40.5M69.5119 23.75L40.5 40.5M69.5119 57.25L40.5 40.5M40.5 74L40.5 40.5M11.4882 57.25L40.5 40.5M11.4882 23.75L40.5 40.5" stroke="black"/>
<circle cx="11" cy="23" r="4" fill="white" stroke="black"/>
<circle cx="69" cy="57" r="4" fill="white" stroke="black"/>
<circle cx="69" cy="25" r="4" fill="white" stroke="black"/>
<circle cx="40" cy="73" r="4" fill="white" stroke="black"/>
<circle cx="40" cy="7" r="4" fill="white" stroke="black"/>
<circle cx="13" cy="57" r="4" fill="white" stroke="black"/>
<circle cx="0" cy="0" r="4" fill="black">
<animateMotion path="M40.5 7L40.5 40.5M69.5119 23.75L40.5 40.5M69.5119 57.25L40.5 40.5M40.5 74L40.5 40.5M11.4882 57.25L40.5 40.5M11.4882 23.75L40.5 40.5"  begin="0s" dur="10s" repeatCount="indefinite"/>

</circle>
<circle cx="40" cy="40" r="7" fill="#F3F7FF" stroke="black"/>
</svg>
