<svg width="80" height="80" viewBox="0 0 80 80" fill="none" xmlns="http://www.w3.org/2000/svg">
<rect x="22" y="34" width="22" height="12" fill="#F3F7FF" stroke="black"/>
<rect x="22" y="13" width="22" height="12" fill="#F3F7FF" stroke="black"/>
<rect x="22" y="56" width="22" height="12" fill="#F3F7FF" stroke="black"/>
<rect x="8" y="34" width="9" height="12" stroke="black"/>
<rect x="8" y="13" width="9" height="12" stroke="black"/>
<rect x="8" y="56" width="9" height="12" stroke="black"/>
<path d="M44 41H62V52C62 57.5228 57.5228 62 52 62H44" stroke="black"/>
<path d="M44 20H52C57.5228 20 62 24.4772 62 30V41H44" stroke="black"/>
<path d="M62.5 41H71.5" stroke="black"/>
<path d="M62 31V31C67.5228 31 72 35.4772 72 41V41C72 46.5228 67.5228 51 62 51V51" stroke="black"/>
</svg>
