<svg width="25" height="24" viewBox="0 0 25 24" fill="none" xmlns="http://www.w3.org/2000/svg">
<g clip-path="url(#clip0)">
<path d="M12.4 0.297015C5.77077 0.297015 0.400024 5.67226 0.400024 12.297C0.400024 17.6018 3.83802 22.098 8.60277 23.6843C9.20502 23.7975 9.42252 23.4263 9.42252 23.1053C9.42252 22.8203 9.41577 22.0665 9.41127 21.066C6.07152 21.789 5.36802 19.4528 5.36802 19.4528C4.82127 18.0698 4.03227 17.6985 4.03227 17.6985C2.94627 16.9568 4.11852 16.9725 4.11852 16.9725C5.32152 17.0543 5.95452 18.2063 5.95452 18.2063C7.02477 20.0423 8.76252 19.5113 9.45027 19.2023C9.55527 18.429 9.86802 17.8973 10.2085 17.601C7.54452 17.3003 4.74327 16.269 4.74327 11.6708C4.74327 10.3575 5.20827 9.28801 5.97702 8.44801C5.84427 8.14726 5.43777 6.92476 6.08277 5.27176C6.08277 5.27176 7.08702 4.95151 9.38277 6.50251C10.3607 6.23654 11.3693 6.10012 12.3828 6.09676C13.4028 6.10351 14.422 6.23701 15.3828 6.50251C17.665 4.95151 18.6685 5.27176 18.6685 5.27176C19.3128 6.92476 18.9063 8.14651 18.7893 8.44801C19.5505 9.28801 20.0155 10.3583 20.0155 11.6708C20.0155 16.2795 17.2105 17.2958 14.5435 17.589C14.9605 17.9483 15.3513 18.687 15.3513 19.8083C15.3513 21.4133 15.3363 22.7063 15.3363 23.097C15.3363 23.409 15.5463 23.784 16.1643 23.6633C20.9643 22.0935 24.3985 17.5935 24.3985 12.2963C24.3985 5.67151 19.0278 0.296265 12.3985 0.296265L12.4 0.297015Z" fill="white"/>
</g>
<defs>
<clipPath id="clip0">
<rect x="0.400024" width="24" height="24" fill="white"/>
</clipPath>
</defs>
</svg>
