<svg width="23" height="23" viewBox="0 0 23 23" fill="none" xmlns="http://www.w3.org/2000/svg">
<g clip-path="url(#clip0)">
<path d="M22.4 20.65V1.75C22.4 1.26667 22.2292 0.854167 21.8875 0.5125C21.5458 0.170833 21.1333 0 20.65 0H1.75C1.26667 0 0.854167 0.170833 0.5125 0.5125C0.170833 0.854167 0 1.26667 0 1.75V20.65C0 21.1333 0.170833 21.5458 0.5125 21.8875C0.854167 22.2292 1.26667 22.4 1.75 22.4H20.65C21.1333 22.4 21.5458 22.2292 21.8875 21.8875C22.2292 21.5458 22.4 21.1333 22.4 20.65ZM11.2 3.15C12.85 3.15 14.3729 3.47083 15.7688 4.1125C17.1646 4.75417 18.2688 5.625 19.0813 6.725C19.8938 7.825 20.3 9.025 20.3 10.325C20.3 11.625 19.8938 12.825 19.0813 13.925C18.2688 15.025 17.1646 15.8958 15.7688 16.5375C14.3729 17.1792 12.85 17.5 11.2 17.5C10.65 17.5 10.1125 17.4625 9.5875 17.3875C9.02083 17.7958 8.26875 18.3167 7.33125 18.95C6.39375 19.5833 5.8625 19.9083 5.7375 19.925C5.6625 19.9583 5.59167 19.9542 5.525 19.9125C5.49167 19.8958 5.46875 19.8688 5.45625 19.8313C5.44375 19.7938 5.4375 19.7625 5.4375 19.7375V19.7C5.44583 19.6583 5.75417 18.5583 6.3625 16.4C5.0625 15.7583 4.02708 14.9 3.25625 13.825C2.48542 12.75 2.1 11.5833 2.1 10.325C2.1 9.025 2.50625 7.825 3.31875 6.725C4.13125 5.625 5.23542 4.75417 6.63125 4.1125C8.02708 3.47083 9.55 3.15 11.2 3.15ZM6.5875 12.225V9.1H7.3875C7.50417 9.1 7.62083 9.0625 7.7375 8.9875C7.85417 8.9125 7.9125 8.80417 7.9125 8.6625C7.9125 8.52917 7.85833 8.41667 7.75 8.325C7.64167 8.23333 7.5375 8.1875 7.4375 8.1875H4.7875C4.47083 8.1875 4.3125 8.33333 4.3125 8.625C4.3125 8.78333 4.36667 8.90208 4.475 8.98125C4.58333 9.06042 4.70417 9.1 4.8375 9.1H5.6375V12.225C5.6375 12.3917 5.67917 12.5292 5.7625 12.6375C5.84583 12.7458 5.9625 12.8 6.1125 12.8C6.25417 12.8 6.36875 12.7396 6.45625 12.6188C6.54375 12.4979 6.5875 12.3667 6.5875 12.225ZM10.9875 12.8C11.2542 12.6917 11.3292 12.45 11.2125 12.075C11.1958 11.9917 11.0125 11.4688 10.6625 10.5063C10.3125 9.54375 10.1042 8.99167 10.0375 8.85C9.85417 8.40833 9.6 8.1875 9.275 8.1875C8.93333 8.1875 8.66667 8.40833 8.475 8.85C8.425 8.96667 8.22083 9.525 7.8625 10.525C7.50417 11.525 7.31667 12.0417 7.3 12.075C7.25833 12.1333 7.25 12.2438 7.275 12.4063C7.3 12.5688 7.37083 12.6833 7.4875 12.75C7.62083 12.8083 7.75208 12.8146 7.88125 12.7688C8.01042 12.7229 8.1 12.65 8.15 12.55L8.3875 11.8875H10.1625C10.2375 12.1292 10.2917 12.2875 10.325 12.3625C10.5 12.7458 10.7208 12.8917 10.9875 12.8ZM13.725 12.8C13.8667 12.8 13.9958 12.7563 14.1125 12.6688C14.2292 12.5813 14.2875 12.4625 14.2875 12.3125C14.2875 12.1625 14.2354 12.0458 14.1313 11.9625C14.0271 11.8792 13.8917 11.8375 13.725 11.8375H12.5875V8.7625C12.5875 8.62083 12.5458 8.48958 12.4625 8.36875C12.3792 8.24792 12.2625 8.1875 12.1125 8.1875C11.9625 8.1875 11.8479 8.24167 11.7688 8.35C11.6896 8.45833 11.65 8.59583 11.65 8.7625V12.225C11.65 12.3917 11.6896 12.5292 11.7688 12.6375C11.8479 12.7458 11.9625 12.8 12.1125 12.8C12.1208 12.8 12.1333 12.7979 12.15 12.7938C12.1667 12.7896 12.1792 12.7875 12.1875 12.7875C12.1958 12.7875 12.2083 12.7896 12.225 12.7938C12.2417 12.7979 12.2542 12.8 12.2625 12.8H13.725ZM17.725 12.7375C17.8417 12.6292 17.8979 12.5042 17.8938 12.3625C17.8896 12.2208 17.8458 12.0958 17.7625 11.9875C17.7542 11.9792 17.6875 11.8917 17.5625 11.725C17.4375 11.5583 17.2667 11.3292 17.05 11.0375C16.8333 10.7458 16.6458 10.4917 16.4875 10.275C17.2708 9.475 17.6667 9.07083 17.675 9.0625C17.775 8.9625 17.8354 8.84583 17.8563 8.7125C17.8771 8.57917 17.8375 8.45 17.7375 8.325C17.5208 8.09167 17.275 8.1125 17 8.3875C16.9917 8.39583 16.9042 8.48542 16.7375 8.65625C16.5708 8.82708 16.3667 9.03542 16.125 9.28125C15.8833 9.52708 15.6667 9.74583 15.475 9.9375V8.7625C15.475 8.62083 15.4313 8.48958 15.3438 8.36875C15.2563 8.24792 15.1417 8.1875 15 8.1875C14.85 8.1875 14.7333 8.24167 14.65 8.35C14.5667 8.45833 14.525 8.59583 14.525 8.7625V12.225C14.525 12.3917 14.5667 12.5292 14.65 12.6375C14.7333 12.7458 14.85 12.8 15 12.8C15.1417 12.8 15.2563 12.7396 15.3438 12.6188C15.4313 12.4979 15.475 12.3667 15.475 12.225V11.3L15.6375 11.1375L15.8125 10.95C16.5542 11.95 16.95 12.4875 17 12.5625C17.1 12.6958 17.2125 12.7792 17.3375 12.8125C17.4625 12.8458 17.5917 12.8208 17.725 12.7375ZM8.6625 10.975L9.275 9.15L9.9 10.975H8.6625Z" fill="white"/>
</g>
<defs>
<clipPath id="clip0">
<rect width="22.4" height="22.4" fill="white"/>
</clipPath>
</defs>
</svg>
