<svg width="20" height="20" viewBox="0 0 20 20" fill="none" xmlns="http://www.w3.org/2000/svg">
<path d="M17.0465 2.95354C16.1228 2.0207 15.0238 1.27956 13.8128 0.772706C12.6018 0.265848 11.3026 0.00326128 9.98984 3.01863e-05C8.67705 -0.00320091 7.37656 0.252988 6.16309 0.753878C4.94961 1.25477 3.84706 1.99049 2.91877 2.91877C1.99049 3.84706 1.25477 4.94961 0.753878 6.16309C0.252988 7.37656 -0.00320091 8.67705 3.01863e-05 9.98984C0.00326128 11.3026 0.265849 12.6018 0.772706 13.8128C1.27956 15.0238 2.0207 16.1228 2.95354 17.0465C3.87725 17.9793 4.97616 18.7204 6.18716 19.2273C7.39816 19.7342 8.69737 19.9967 10.0102 20C11.3229 20.0032 12.6234 19.747 13.8369 19.2461C15.0504 18.7452 16.1529 18.0095 17.0812 17.0812C18.0095 16.1529 18.7452 15.0504 19.2461 13.8369C19.747 12.6234 20.0032 11.3229 20 10.0102C19.9967 8.69737 19.7342 7.39816 19.2273 6.18716C18.7204 4.97616 17.9793 3.87725 17.0465 2.95354V2.95354ZM1.4583 10C1.45798 9.24402 1.55822 8.49136 1.75637 7.76181C2.08291 8.46472 2.55716 9.07198 2.87969 9.79313C3.29655 10.7203 4.41587 10.4631 4.91013 11.2755C5.34878 11.9966 4.88032 12.9086 5.20864 13.6631C5.4471 14.2108 6.00943 14.3305 6.39736 14.7309C6.79375 15.1348 6.7853 15.6882 6.8458 16.215C6.91407 16.8339 7.02481 17.4473 7.17724 18.051C7.17724 18.0554 7.17724 18.0603 7.1808 18.0648C3.85176 16.8956 1.4583 13.7223 1.4583 10ZM10 18.5417C9.52297 18.5415 9.04679 18.5017 8.57638 18.4225C8.58128 18.3019 8.5835 18.1894 8.59551 18.1111C8.70362 17.4037 9.05774 16.7119 9.53555 16.1825C10.0076 15.6602 10.6544 15.307 11.053 14.7144C11.4436 14.1361 11.5606 13.3575 11.3996 12.6817C11.1625 11.6834 9.80603 11.3502 9.07465 10.8088C8.65424 10.4974 8.28009 10.016 7.728 9.97687C7.47353 9.95907 7.26043 10.0138 7.00818 9.94884C6.77684 9.88878 6.59533 9.76421 6.34887 9.79669C5.88842 9.85719 5.59791 10.3492 5.1032 10.2825C4.63386 10.2198 4.15027 9.67034 4.0435 9.22324C3.90648 8.64845 4.36115 8.46205 4.84829 8.41089C5.0516 8.38953 5.27982 8.3664 5.47512 8.44114C5.73227 8.53634 5.85372 8.78815 6.08461 8.91538C6.51748 9.15295 6.60512 8.77347 6.53883 8.38909C6.43962 7.81341 6.32396 7.57896 6.83735 7.18257C7.19325 6.90942 7.49755 6.71189 7.44061 6.22119C7.40679 5.93291 7.24886 5.80256 7.39612 5.51561C7.50778 5.29717 7.8143 5.10009 8.01406 4.96974C8.52967 4.63341 10.2229 4.65833 9.5311 3.71696C9.32779 3.44069 8.95275 2.94687 8.59685 2.87925C8.15197 2.79517 7.95444 3.29165 7.64436 3.51053C7.32405 3.73698 6.70032 3.99412 6.37957 3.644C5.94803 3.17287 6.66562 3.0185 6.82445 2.68929C6.89785 2.5358 6.82445 2.3227 6.70077 2.12206C6.86122 2.05444 7.02435 1.99171 7.19014 1.93388C7.29404 2.01062 7.4173 2.05684 7.54604 2.06734C7.84367 2.08692 8.12439 1.92587 8.3842 2.12874C8.67248 2.35118 8.88024 2.63234 9.26283 2.70174C9.63297 2.76892 10.0249 2.55315 10.1166 2.17411C10.1722 1.94367 10.1166 1.70032 10.0632 1.46231C11.727 1.47188 13.3514 1.97017 14.7344 2.89527C14.6454 2.86145 14.5391 2.86546 14.4079 2.92641C14.1378 3.05186 13.7552 3.37129 13.7236 3.68804C13.6876 4.0475 14.2179 4.09822 14.4697 4.09822C14.8479 4.09822 15.2309 3.92917 15.109 3.49229C15.0561 3.30278 14.984 3.10569 14.8679 2.98647C15.147 3.18015 15.4144 3.3902 15.6687 3.61553C15.6647 3.61953 15.6607 3.62309 15.6567 3.62754C15.4004 3.89447 15.1028 4.10578 14.9275 4.43055C14.8038 4.65922 14.6646 4.76777 14.4141 4.82694C14.2762 4.85941 14.1187 4.87142 14.003 4.96396C13.6809 5.21754 13.8642 5.82703 14.1694 6.00987C14.5551 6.24076 15.1272 6.13221 15.4182 5.80256C15.6455 5.54453 15.7794 5.09653 16.1883 5.09698C16.3683 5.0966 16.5412 5.16708 16.6696 5.29317C16.8387 5.46845 16.8053 5.63217 16.8414 5.85105C16.905 6.23987 17.248 6.029 17.4566 5.83281C17.6087 6.10348 17.746 6.38224 17.8677 6.66785C17.6381 6.99839 17.4557 7.35875 16.9036 6.97348C16.5731 6.74259 16.3698 6.40759 15.9547 6.30349C15.5921 6.21452 15.2207 6.30705 14.8625 6.36889C14.4555 6.43962 13.9728 6.47077 13.664 6.77907C13.3655 7.07625 13.2076 7.47397 12.8899 7.77249C12.2756 8.35083 12.0162 8.98211 12.4139 9.7998C12.7965 10.5859 13.5969 11.0125 14.4604 10.9565C15.3088 10.9 16.1901 10.408 16.1656 11.6407C16.1567 12.0771 16.2479 12.3792 16.3818 12.7845C16.5059 13.1582 16.4975 13.5203 16.5259 13.906C16.553 14.3577 16.6236 14.8057 16.7368 15.2438C15.9394 16.2705 14.9179 17.1013 13.7503 17.6729C12.5827 18.2445 11.3 18.5416 10 18.5417V18.5417Z" fill="white"/>
</svg>
