<svg width="35" height="35" viewBox="0 0 35 35" fill="none" xmlns="http://www.w3.org/2000/svg">
<path d="M28.0805 11.8919L18.3394 7.07923C18.2338 7.02717 18.1177 7.0001 18 7.0001C17.8823 7.0001 17.7662 7.02717 17.6606 7.07923L7.92188 11.8919C7.79594 11.9532 7.68968 12.0485 7.61512 12.167C7.54056 12.2856 7.50068 12.4226 7.5 12.5627V24.25C7.50055 24.3491 7.52062 24.4471 7.55907 24.5384C7.59751 24.6298 7.65357 24.7126 7.72405 24.7823C7.79453 24.8519 7.87804 24.907 7.96981 24.9444C8.06159 24.9817 8.15982 25.0006 8.25891 25H27.7411C27.8402 25.0006 27.9384 24.9817 28.0302 24.9444C28.122 24.907 28.2055 24.8519 28.2759 24.7823C28.3464 24.7126 28.4025 24.6298 28.4409 24.5384C28.4794 24.4471 28.4994 24.3491 28.5 24.25V12.5627C28.4995 12.4229 28.46 12.286 28.3859 12.1675C28.3117 12.0489 28.206 11.9535 28.0805 11.8919ZM18 8.5886L26.1094 12.5936L17.8734 16.6614L9.76406 12.6564L18 8.5886Z" fill="white"/>
<path fill-rule="evenodd" clip-rule="evenodd" d="M17.5 33C26.0604 33 33 26.0604 33 17.5C33 8.93959 26.0604 2 17.5 2C8.93959 2 2 8.93959 2 17.5C2 26.0604 8.93959 33 17.5 33ZM17.5 35C27.165 35 35 27.165 35 17.5C35 7.83502 27.165 0 17.5 0C7.83502 0 0 7.83502 0 17.5C0 27.165 7.83502 35 17.5 35Z" fill="white"/>
</svg>
