<svg width="80" height="80" viewBox="0 0 80 80" fill="none" xmlns="http://www.w3.org/2000/svg">
<path d="M49.7539 67.0978L31.1601 67.3173M49.7539 67.0978L50.1864 63.3134M49.7539 67.0978L49.3214 70.8822M31.1601 67.3173L30.7401 63.6426M31.1601 67.3173L31.58 70.992M30.7401 63.6426L30.3202 59.9679C21.8865 56.2463 16 47.8106 16 38C16 24.7452 26.7452 14 40 14C53.2548 14 64 24.7452 64 38C64 47.4422 58.5473 55.6109 50.6189 59.5289L50.1864 63.3134M30.7401 63.6426L50.1864 63.3134M49.3214 70.8822L48.8889 74.6667C43.603 77.4487 37.2859 77.4487 32 74.6667L31.58 70.992M49.3214 70.8822L31.58 70.992" stroke="#181E3C"/>
<path d="M40 47.069C43.866 47.069 47 43.9195 47 40.0345C47 36.1494 43.866 33 40 33C36.134 33 33 36.1494 33 40.0345C33 43.9195 36.134 47.069 40 47.069ZM40 47.069V62.5" stroke="#181E3C"/>
<path d="M39 10.0175C39.3319 10.0059 39.6653 10 40 10V4C39.6655 4 39.3322 4.00483 39 4.01442V10.0175Z" fill="black"/>
<path d="M31.0894 5.17959L32.6427 10.9766C32.3202 11.0642 32 11.1574 31.6823 11.2561L30.128 5.45534C30.4465 5.35885 30.767 5.26691 31.0894 5.17959Z" fill="black"/>
<path d="M21.9835 9.16056C22.2659 8.98376 22.5511 8.81099 22.839 8.64234L25.8395 13.8394C25.5517 14.0085 25.2673 14.1825 24.9862 14.3614L21.9835 9.16056Z" fill="black"/>
<path d="M15.1199 14.827C15.3472 14.583 15.578 14.3424 15.8124 14.1053L20.0551 18.348C19.8211 18.5855 19.5912 18.8272 19.3657 19.0729L15.1199 14.827Z" fill="black"/>
<path d="M10.459 21.1558L15.6561 24.1564C15.4912 24.4458 15.3313 24.7384 15.1765 25.0342L9.97561 22.0315C10.1326 21.737 10.2937 21.4451 10.459 21.1558Z" fill="black"/>
<path d="M12.9186 30.86L7.12152 29.3067C7.03668 29.6284 6.95643 29.952 6.88085 30.2774L12.6816 31.8318C12.755 31.5056 12.834 31.1817 12.9186 30.86Z" fill="black"/>
<path d="M12 38H6C6 38.3345 6.00483 38.6678 6.01442 39H12.0175C12.0059 38.6681 12 38.3347 12 38Z" fill="black"/>
<path d="M67.9825 39H73.9856C73.9952 38.6678 74 38.3345 74 38H68C68 38.3347 67.9941 38.6681 67.9825 39Z" fill="black"/>
<path d="M67.2604 31.5793L73.0596 30.0254C72.9815 29.7006 72.8988 29.3777 72.8115 29.0566L67.0145 30.6099C67.102 30.9308 67.184 31.254 67.2604 31.5793Z" fill="black"/>
<path d="M64.5876 24.593L69.7859 21.5918C69.6246 21.2997 69.4592 21.0103 69.2897 20.7235L64.0924 23.7242C64.2625 24.0106 64.4276 24.3002 64.5876 24.593Z" fill="black"/>
<path d="M60.1494 18.5577L64.3926 14.3145C64.1604 14.0754 63.9246 13.8396 63.6855 13.6074L59.4423 17.8506C59.6822 18.0821 59.9179 18.3178 60.1494 18.5577Z" fill="black"/>
<path d="M54.2758 13.9075L57.2764 8.71024C56.9897 8.54075 56.7002 8.37534 56.4082 8.2141L53.4069 13.4124C53.6998 13.5724 53.9894 13.7375 54.2758 13.9075Z" fill="black"/>
<path d="M47.3901 10.9855L48.9434 5.18849C48.6223 5.10118 48.2994 5.01846 47.9746 4.9404L46.4207 10.7396C46.746 10.816 47.0692 10.898 47.3901 10.9855Z" fill="black"/>
<path d="M39 10.0175C39.3319 10.0059 39.6653 10 40 10V4C39.6655 4 39.3322 4.00483 39 4.01442V10.0175Z" stroke="#181E3C"/>
<path d="M31.0894 5.17959L32.6427 10.9766C32.3202 11.0642 32 11.1574 31.6823 11.2561L30.128 5.45534C30.4465 5.35885 30.767 5.26691 31.0894 5.17959Z" stroke="#181E3C"/>
<path d="M21.9835 9.16056C22.2659 8.98376 22.5511 8.81099 22.839 8.64234L25.8395 13.8394C25.5517 14.0085 25.2673 14.1825 24.9862 14.3614L21.9835 9.16056Z" stroke="#181E3C"/>
<path d="M15.1199 14.827C15.3472 14.583 15.578 14.3424 15.8124 14.1053L20.0551 18.348C19.8211 18.5855 19.5912 18.8272 19.3657 19.0729L15.1199 14.827Z" stroke="#181E3C"/>
<path d="M10.459 21.1558L15.6561 24.1564C15.4912 24.4458 15.3313 24.7384 15.1765 25.0342L9.97561 22.0315C10.1326 21.737 10.2937 21.4451 10.459 21.1558Z" stroke="#181E3C"/>
<path d="M12.9186 30.86L7.12152 29.3067C7.03668 29.6284 6.95643 29.952 6.88085 30.2774L12.6816 31.8318C12.755 31.5056 12.834 31.1817 12.9186 30.86Z" stroke="#181E3C"/>
<path d="M12 38H6C6 38.3345 6.00483 38.6678 6.01442 39H12.0175C12.0059 38.6681 12 38.3347 12 38Z" stroke="#181E3C"/>
<path d="M67.9825 39H73.9856C73.9952 38.6678 74 38.3345 74 38H68C68 38.3347 67.9941 38.6681 67.9825 39Z" stroke="#181E3C"/>
<path d="M67.2604 31.5793L73.0596 30.0254C72.9815 29.7006 72.8988 29.3777 72.8115 29.0566L67.0145 30.6099C67.102 30.9308 67.184 31.254 67.2604 31.5793Z" stroke="#181E3C"/>
<path d="M64.5876 24.593L69.7859 21.5918C69.6246 21.2997 69.4592 21.0103 69.2897 20.7235L64.0924 23.7242C64.2625 24.0106 64.4276 24.3002 64.5876 24.593Z" stroke="#181E3C"/>
<path d="M60.1494 18.5577L64.3926 14.3145C64.1604 14.0754 63.9246 13.8396 63.6855 13.6074L59.4423 17.8506C59.6822 18.0821 59.9179 18.3178 60.1494 18.5577Z" stroke="#181E3C"/>
<path d="M54.2758 13.9075L57.2764 8.71024C56.9897 8.54075 56.7002 8.37534 56.4082 8.2141L53.4069 13.4124C53.6998 13.5724 53.9894 13.7375 54.2758 13.9075Z" stroke="#181E3C"/>
<path d="M47.3901 10.9855L48.9434 5.18849C48.6223 5.10118 48.2994 5.01846 47.9746 4.9404L46.4207 10.7396C46.746 10.816 47.0692 10.898 47.3901 10.9855Z" stroke="#181E3C"/>
</svg>
