<svg width="80" height="80" viewBox="0 0 80 80" fill="none" xmlns="http://www.w3.org/2000/svg">
<path d="M74.5 40C74.5 41.6098 73.6283 43.2038 71.9186 44.7136C70.2096 46.2227 67.708 47.6045 64.5738 48.7751C58.3091 51.1149 49.6211 52.5723 40 52.5723C30.3789 52.5723 21.6909 51.1149 15.4262 48.7751C12.292 47.6045 9.79042 46.2227 8.08143 44.7136C6.37173 43.2038 5.5 41.6098 5.5 40C5.5 38.3903 6.37173 36.7962 8.08143 35.2865C9.79042 33.7774 12.292 32.3955 15.4262 31.2249C21.6909 28.8851 30.3789 27.4277 40 27.4277C49.6211 27.4277 58.3091 28.8851 64.5738 31.2249C67.708 32.3955 70.2096 33.7774 71.9186 35.2865C73.6283 36.7962 74.5 38.3903 74.5 40Z" stroke="#181E3C"/>
<path d="M40 5.5C41.6098 5.5 43.2038 6.37173 44.7136 8.08143C46.2227 9.79042 47.6045 12.292 48.7751 15.4262C51.1149 21.6909 52.5723 30.3789 52.5723 40C52.5723 49.6211 51.1149 58.3091 48.7751 64.5738C47.6045 67.708 46.2227 70.2096 44.7136 71.9186C43.2038 73.6283 41.6098 74.5 40 74.5C38.3903 74.5 36.7962 73.6283 35.2865 71.9186C33.7774 70.2096 32.3955 67.708 31.2249 64.5738C28.8851 58.3091 27.4277 49.6211 27.4277 40C27.4277 30.3789 28.8851 21.6909 31.2249 15.4262C32.3955 12.292 33.7774 9.79042 35.2865 8.08143C36.7962 6.37173 38.3903 5.5 40 5.5Z" stroke="#181E3C"/>
<path d="M15.6047 15.6049C16.743 14.4666 18.4865 13.9559 20.763 14.0973C23.0386 14.2386 25.7846 15.0304 28.8285 16.4188C34.9128 19.1941 42.0867 24.307 48.8898 31.1101C55.693 37.9133 60.8058 45.0871 63.5811 51.1714C64.9696 54.2154 65.7614 56.9614 65.9027 59.2369C66.0441 61.5134 65.5334 63.257 64.3951 64.3953C63.2568 65.5335 61.5132 66.0443 59.2368 65.9029C56.9612 65.7615 54.2152 64.9698 51.1713 63.5813C45.087 60.806 37.9131 55.6932 31.1099 48.89C24.3068 42.0869 19.1939 34.913 16.4187 28.8287C15.0302 25.7848 14.2384 23.0387 14.0971 20.7632C13.9557 18.4867 14.4664 16.7432 15.6047 15.6049Z" stroke="#181E3C"/>
<path d="M15.6048 64.3953C14.4665 63.257 13.9557 61.5135 14.0971 59.237C14.2385 56.9614 15.0302 54.2154 16.4187 51.1715C19.194 45.0872 24.3069 37.9133 31.11 31.1102C37.9131 24.307 45.087 19.1942 51.1713 16.4189C54.2153 15.0304 56.9613 14.2386 59.2368 14.0973C61.5133 13.9559 63.2569 14.4666 64.3951 15.6049C65.5334 16.7432 66.0442 18.4868 65.9028 20.7632C65.7614 23.0388 64.9697 25.7848 63.5812 28.8287C60.8059 34.913 55.693 42.0869 48.8899 48.8901C42.0868 55.6932 34.9129 60.8061 28.8286 63.5813C25.7846 64.9698 23.0386 65.7616 20.7631 65.9029C18.4866 66.0443 16.743 65.5336 15.6048 64.3953Z" stroke="#181E3C"/>
<circle cx="40" cy="40" r="2" fill="#181E3C"/>
</svg>
