<svg width="80" height="80" viewBox="0 0 80 80" fill="none" xmlns="http://www.w3.org/2000/svg">
<path fill-rule="evenodd" clip-rule="evenodd" d="M21.1213 12.9466C21.935 12.4946 22.9439 12.7402 23.5195 13.4718L27.2308 18.1884C27.9492 17.9403 28.6905 17.7411 29.4507 17.595L30.3059 11.6582C30.4386 10.7365 31.19 10.0194 32.121 10.0035C32.2577 10.0012 32.3945 10 32.5317 10C32.6689 10 32.8058 10.0012 32.9425 10.0035C33.8735 10.0194 34.6249 10.7365 34.7577 11.6582L35.6129 17.5951C36.373 17.7412 37.1143 17.9403 37.8327 18.1885L41.5439 13.4718C42.1196 12.7403 43.1285 12.4946 43.9422 12.9467C44.1828 13.0803 44.4208 13.2181 44.6561 13.3598C45.4525 13.8395 45.743 14.8348 45.3977 15.698L43.1673 21.2735C43.7456 21.7756 44.2879 22.318 44.7901 22.8962L50.3655 20.6658C51.2287 20.3205 52.224 20.611 52.7037 21.4074C52.8454 21.6427 52.9832 21.8807 53.1168 22.1213C53.5688 22.935 53.3232 23.944 52.5917 24.5196L47.875 28.2308C48.1232 28.9492 48.3223 29.6905 48.4684 30.4507L54.4053 31.3058C55.3269 31.4386 56.044 32.19 56.0599 33.121C56.0623 33.2576 56.0634 33.3945 56.0634 33.5317C56.0634 33.6689 56.0623 33.8058 56.0599 33.9425C56.044 34.8735 55.3269 35.6249 54.4053 35.7577L48.4684 36.6129C48.3223 37.373 48.1232 38.1143 47.875 38.8327L52.5917 42.5439C53.3232 43.1195 53.5688 44.1285 53.1168 44.9422C52.9831 45.1828 52.8454 45.4208 52.7037 45.6561C52.224 46.4525 51.2287 46.743 50.3655 46.3977L44.79 44.1673C44.2879 44.7455 43.7455 45.2879 43.1673 45.79L45.3977 51.3655C45.743 52.2287 45.4525 53.224 44.6561 53.7037C44.4208 53.8454 44.1828 53.9831 43.9422 54.1168C43.1285 54.5688 42.1195 54.3232 41.5439 53.5917L37.8327 48.875C37.1143 49.1232 36.373 49.3223 35.6129 49.4684L34.7577 55.4053C34.6249 56.3269 33.8735 57.044 32.9425 57.0599C32.8058 57.0623 32.6689 57.0634 32.5317 57.0634C32.3945 57.0634 32.2576 57.0623 32.121 57.0599C31.19 57.044 30.4386 56.3269 30.3058 55.4053L29.4507 49.4684C28.6905 49.3223 27.9492 49.1232 27.2308 48.875L23.5196 53.5917C22.944 54.3232 21.935 54.5688 21.1213 54.1168C20.8807 53.9832 20.6427 53.8454 20.4074 53.7037C19.611 53.224 19.3205 52.2287 19.6658 51.3655L21.8962 45.7901C21.318 45.2879 20.7756 44.7456 20.2735 44.1673L14.698 46.3977C13.8348 46.743 12.8395 46.4525 12.3598 45.6561C12.2181 45.4208 12.0803 45.1828 11.9467 44.9422C11.4946 44.1285 11.7403 43.1196 12.4718 42.5439L17.1885 38.8327C16.9403 38.1143 16.7412 37.373 16.5951 36.6129L10.6582 35.7577C9.73653 35.6249 9.01945 34.8735 9.00351 33.9425C9.00117 33.8058 9 33.6689 9 33.5317C9 33.3945 9.00117 33.2577 9.00351 33.121C9.01944 32.19 9.73653 31.4386 10.6582 31.3059L16.595 30.4507C16.7411 29.6905 16.9403 28.9492 17.1884 28.2308L12.4718 24.5195C11.7402 23.9439 11.4946 22.935 11.9466 22.1213C12.0803 21.8807 12.218 21.6427 12.3597 21.4074C12.8394 20.611 13.8348 20.3205 14.6979 20.6658L20.2734 22.8962C20.7755 22.3179 21.3179 21.7755 21.8962 21.2734L19.6658 15.6979C19.3205 14.8348 19.611 13.8394 20.4074 13.3597C20.6427 13.218 20.8807 13.0803 21.1213 12.9466ZM32.5317 43.2689C37.9094 43.2689 42.2689 38.9094 42.2689 33.5317C42.2689 28.1539 37.9094 23.7944 32.5317 23.7944C27.1539 23.7944 22.7944 28.1539 22.7944 33.5317C22.7944 38.9094 27.1539 43.2689 32.5317 43.2689Z" stroke="#181E3C"/>
<path fill-rule="evenodd" clip-rule="evenodd" d="M47.5498 48.1913C48.0897 47.5665 48.9876 47.4348 49.7336 47.789L52.7263 49.2101C53.3866 48.7804 54.1045 48.4317 54.8659 48.1782L55.6204 44.9539C55.8088 44.1491 56.4727 43.529 57.2987 43.4975C57.4736 43.4908 57.6494 43.4874 57.8259 43.4874C58.0025 43.4874 58.1783 43.4908 58.3532 43.4975C59.1792 43.529 59.8431 44.1491 60.0315 44.9539L60.786 48.1782C61.5473 48.4317 62.2652 48.7804 62.9256 49.2101L65.9183 47.789C66.6642 47.4348 67.5622 47.5665 68.1021 48.1913C68.3323 48.4578 68.5524 48.7333 68.7617 49.0173C69.252 49.6825 69.1809 50.588 68.6692 51.2369L66.6182 53.8378C66.8873 54.5712 67.0673 55.3475 67.1451 56.1538L70.1249 57.6089C70.866 57.9709 71.323 58.7538 71.172 59.5647C71.1069 59.9142 71.0284 60.259 70.9371 60.5985C70.7227 61.3957 69.9707 61.9037 69.1452 61.9082L65.8283 61.9264C65.4141 62.6066 64.9156 63.2298 64.3473 63.7815L65.0678 67.0196C65.247 67.8249 64.9196 68.6704 64.1912 69.0578C63.8801 69.2232 63.5617 69.3769 63.2367 69.5183C62.4797 69.8476 61.6138 69.5765 61.0956 68.9339L59.013 66.3516C58.6243 66.4008 58.2281 66.4262 57.8259 66.4262C57.4238 66.4262 57.0276 66.4008 56.6388 66.3516L54.5563 68.9339C54.038 69.5765 53.1721 69.8476 52.4151 69.5183C52.0902 69.3769 51.7718 69.2232 51.4607 69.0578C50.7323 68.6704 50.4049 67.8249 50.5841 67.0196L51.3045 63.7815C50.7363 63.2298 50.2378 62.6066 49.8236 61.9264L46.5066 61.9082C45.6811 61.9037 44.9292 61.3957 44.7148 60.5985C44.6234 60.259 44.545 59.9142 44.4799 59.5647C44.3288 58.7538 44.7858 57.9709 45.527 57.6089L48.5068 56.1538C48.5845 55.3475 48.7645 54.5712 49.0336 53.8378L46.9826 51.2369C46.471 50.588 46.3999 49.6825 46.8902 49.0172C47.0994 48.7333 47.3195 48.4578 47.5498 48.1913ZM57.8736 60.6837C59.873 60.6837 61.4938 59.0629 61.4938 57.0634C61.4938 55.064 59.873 53.4432 57.8736 53.4432C55.8742 53.4432 54.2533 55.064 54.2533 57.0634C54.2533 59.0629 55.8742 60.6837 57.8736 60.6837Z" stroke="#181E3C"/>
<path d="M15 46.3601V58C15 61.866 18.134 65 22 65H50.7755M45.2857 15H61C64.866 15 68 18.134 68 22V48.4831" stroke="#181E3C"/>
</svg>
