<svg width="80" height="80" viewBox="0 0 80 80" fill="none" xmlns="http://www.w3.org/2000/svg">
<path d="M62 7.21429L62 28C62 40.1503 52.1503 50 40 50V50C27.8497 50 18 40.1503 18 28L18 7.21429M62 7.21429L62 9.52381L62 0.999994L18 0.999996L18 7.21429M62 7.21429L18 7.21429" stroke="#181E3C"/>
<path d="M26 76V76C26 72.6863 28.6863 70 32 70L48 70C51.3137 70 54 72.6863 54 76V76L26 76Z" stroke="#181E3C"/>
<path d="M31.8335 70V70C31.8335 66.6863 34.5198 64 37.8335 64L42.1668 64C45.4805 64 48.1668 66.6863 48.1668 70V70L31.8335 70Z" stroke="#181E3C"/>
<rect x="37" y="64" width="14" height="6" transform="rotate(-90 37 64)" stroke="#181E3C"/>
<path d="M71.4645 22.3388L71.818 22.6924L71.818 22.6924L71.4645 22.3388ZM62 31.8033H61.5V33.0104L62.3536 32.1569L62 31.8033ZM62 6V5.5H61.5V6H62ZM62 11H61.5V11.5H62V11ZM67.9289 18.8033L68.2825 19.1569L68.2825 19.1569L67.9289 18.8033ZM62 24.7322L61.6464 24.3787L61.5 24.5251V24.7322H62ZM71.1109 21.9853L61.6464 31.4497L62.3536 32.1569L71.818 22.6924L71.1109 21.9853ZM73.7678 15.5711C73.7678 17.9769 72.8121 20.2841 71.1109 21.9853L71.818 22.6924C73.7067 20.8037 74.7678 18.2421 74.7678 15.5711H73.7678ZM64.6967 6.5C69.7065 6.5 73.7678 10.5613 73.7678 15.5711H74.7678C74.7678 10.009 70.2588 5.5 64.6967 5.5V6.5ZM62 6.5H64.6967V5.5H62V6.5ZM61.5 6V11H62.5V6H61.5ZM64.6967 10.5H62V11.5H64.6967V10.5ZM69.7678 15.5711C69.7678 12.7704 67.4974 10.5 64.6967 10.5V11.5C66.9451 11.5 68.7678 13.3227 68.7678 15.5711H69.7678ZM68.2825 19.1569C69.2335 18.2058 69.7678 16.916 69.7678 15.5711H68.7678C68.7678 16.6508 68.3389 17.6863 67.5754 18.4497L68.2825 19.1569ZM62.3536 25.0858L68.2825 19.1569L67.5754 18.4497L61.6464 24.3787L62.3536 25.0858ZM61.5 24.7322V31.8033H62.5V24.7322H61.5Z" fill="#181E3C"/>
<path d="M18 32L8.8033 22.3388C7.00838 20.5439 6 18.1095 6 15.5711C6 10.2851 10.2851 6 15.5711 6H18V11H15.5711C13.0465 11 11 13.0465 11 15.5711C11 16.7834 11.4816 17.9461 12.3388 18.8033L18 24.9289V32Z" stroke="#181E3C"/>
<path d="M50 28.3425V31.2536L40 37L30 31.2536V19.7464L40 14L50 19.7464V22.8445" stroke="#181E3C"/>
<path d="M37 21H43V23L37 27V29H43" stroke="#181E3C"/>
</svg>
