<svg width="80" height="80" viewBox="0 0 80 80" fill="none" xmlns="http://www.w3.org/2000/svg">
<path d="M56 60L54 73H27L25 60M56 60H25M56 60L57 53.5M25 60L24 53.5M24 53.5L23 47H58L57 53.5M24 53.5H57" stroke="#181E3C"/>
<path d="M63 17L52.5 25.5M42 34V47H35L38.5 29M42 34L52.5 25.5M42 34L38.5 29M35 24L31.5 13.5M35 24H27.25M35 24L38.5 29M19.5 24H27.25M27.25 24L23.5 34M52.5 25.5L61 27.5" stroke="#181E3C"/>
<circle cx="67.5" cy="12.5" r="6.5" stroke="#181E3C"/>
<circle cx="67.5" cy="12.5" r="6.5" stroke="#181E3C"/>
<circle cx="15" cy="25" r="5" stroke="#181E3C"/>
<circle cx="22.5" cy="37.5" r="3.5" stroke="#181E3C"/>
<circle cx="30" cy="9" r="5" stroke="#181E3C"/>
</svg>
