<svg width="80" height="80" viewBox="0 0 80 80" fill="none" xmlns="http://www.w3.org/2000/svg">
<path d="M10 15.8472V15.8472C20.4999 14.8765 30.5906 11.2963 39.3543 5.43209L40 5L40.6457 5.43209C49.4094 11.2963 59.5001 14.8765 70 15.8472V15.8472L68.5028 45.3752C68.1845 51.653 65.0707 57.4581 60.0169 61.1958L40 76L19.9831 61.1958C14.9292 57.4581 11.8155 51.653 11.4972 45.3752L10 15.8472Z" stroke="#181E3C"/>
<path d="M16 20.7083V20.7083C24.3992 19.9291 32.4692 17.057 39.4721 12.3545L40 12L40.5279 12.3545C47.5308 17.057 55.6008 19.9291 64 20.7083V20.7083L62.9001 42.4778C62.5834 48.7446 59.481 54.5414 54.4424 58.2811L40 69L25.5577 58.2811C20.519 54.5414 17.4166 48.7446 17.0999 42.4777L16 20.7083Z" stroke="#181E3C" stroke-dasharray="2 2"/>
<rect x="30" y="34" width="20" height="15" stroke="#181E3C"/>
<path d="M34 31C34 27.6863 36.6863 25 40 25V25C43.3137 25 46 27.6863 46 31V34H34V31Z" stroke="#181E3C"/>
</svg>
