<svg width="374" height="356" viewBox="0 0 374 356" fill="none" xmlns="http://www.w3.org/2000/svg">
<path d="M186.533 61.6085L243.846 76.9656L285.802 118.922L301.159 176.235L285.802 233.548L243.846 275.504L186.533 290.862L129.219 275.504L87.263 233.548L71.906 176.235L87.263 118.922L129.219 76.9656L186.533 61.6085Z" fill="#F3F7FF"/>
<path opacity=".2" d="M125.624 140.282L187.378 178.35V247.295L125.624 211.342V140.282Z" fill="#181E3C" stroke="black"/>
<path d="M125.624 140.282L187.378 178.35V247.295L125.624 211.342V140.282Z" stroke="black" stroke-width="0.5" />
<path opacity=".1" d="M249.663 141.107L187.486 106L127 141.107L184.948 177.483L249.663 141.107Z" fill="#181E3C" />
<path d="M249.663 141.107L187.486 106L127 141.107L184.948 177.483L249.663 141.107Z" stroke="black" stroke-width="0.5" />
<path d="M120.595 62.0289L186.532 44.3611L252.469 62.0289L300.738 110.298L318.406 176.235L300.738 242.172L252.469 290.441L186.532 308.109L120.595 290.441L72.3263 242.172L54.6585 176.235L72.3263 110.298L120.595 62.0289Z" stroke="black"/>
<path d="M206.179 102.913L240.208 122.56M240.208 229.91L206.179 249.557M166.886 249.557L132.857 229.91M113.21 195.882L113.21 156.588M132.857 122.56L166.886 102.913" stroke="black" stroke-dasharray="2 2"/>
<path d="M284.949 233.227L243.227 274.949M186.235 290.22L129.243 274.949M87.522 233.227L72.251 176.235M87.522 119.243L129.243 77.522M186.235 62.251L243.227 77.522M284.949 119.243L300.22 176.235" stroke="black" stroke-dasharray="2 2"/>
<circle cx="186.532" cy="45.9584" r="8.3825" fill="white" stroke="black"/>
<circle cx="118.01" cy="63.7234" r="8.3825" fill="white" stroke="black"/>
<circle cx="72.3289" cy="110.251" r="8.3825" fill="white" stroke="black"/>
<circle cx="54.5639" cy="176.235" r="8.3825" fill="white" stroke="black"/>
<circle cx="72.3289" cy="242.22" r="8.3825" fill="white" stroke="black"/>
<circle cx="122.24" cy="291.285" r="8.3825" fill="white" stroke="black"/>
<circle cx="186.532" cy="308.204" r="8.3825" fill="white" stroke="black"/>
<circle cx="250.825" cy="291.285" r="8.3825" fill="white" stroke="black"/>
<circle cx="301.582" cy="242.22" r="8.3825" fill="white" stroke="black"/>
<circle cx="319.347" cy="176.235" r="8.3825" fill="white" stroke="black"/>
<circle cx="250.825" cy="63.7234" r="8.3825" fill="white" stroke="black"/>
<circle cx="299.044" cy="105.175" r="8.3825" fill="white" stroke="black"/>
<circle cx="184.84" cy="105.175" r="8.3825" fill="white" stroke="black"/>
<circle cx="126.47" cy="140.705" r="8.3825" fill="white" stroke="black"/>
<circle cx="123.932" cy="210.919" r="8.3825" fill="white" stroke="black"/>
<circle cx="184.84" cy="246.45" r="8.3825" fill="white" stroke="black"/>
<circle cx="248.287" cy="211.765" r="8.3825" fill="white" stroke="black"/>
<circle cx="246.595" cy="140.705" r="8.3825" fill="white" stroke="black"/>
<circle cx="184.84" cy="176.235" r="8.3825" fill="white" stroke="black"/>
<circle cx="134.506" cy="258.716" r="4.57571" stroke="black"/>
<circle cx="233.483" cy="256.178" r="4.57571" stroke="black"/>
<circle cx="236.021" cy="92.9087" r="4.57571" stroke="black"/>
<circle cx="134.506" cy="92.9087" r="4.57571" stroke="black"/>
<circle cx="86.2871" cy="174.966" r="4.57571" stroke="black"/>
<path d="M310.464 242.643H356.146" stroke="black" stroke-dasharray="3 3"/>
<path d="M328.229 176.658H373.911" stroke="black" stroke-dasharray="3 3"/>
<path d="M310.464 105.598H356.146" stroke="black" stroke-dasharray="3 3"/>
<path d="M64.2924 110.674H18.6109" stroke="black" stroke-dasharray="3 3"/>
<path d="M45.6814 176.658H-1.22786e-05" stroke="black" stroke-dasharray="3 3"/>
<path d="M64.2924 242.643H18.6109" stroke="black" stroke-dasharray="3 3"/>
<path d="M184.417 356L184.417 312.011" stroke="black" stroke-dasharray="3 3"/>
<path d="M186.109 38.6897L186.109 0.621857" stroke="black" stroke-dasharray="3 3"/>
<path d="M116.587 52.8412L116.587 14.7733" stroke="black" stroke-dasharray="3 3"/>
<path d="M251.402 52.8412L251.402 14.7733" stroke="black" stroke-dasharray="3 3"/>
<path d="M250.402 344.157L250.402 300.167" stroke="black" stroke-dasharray="3 3"/>
<path d="M121.817 346.695L121.817 302.705" stroke="black" stroke-dasharray="3 3"/>

<circle cx="0" cy="0" r="4" fill="black">
  <animateMotion path="M125.624 140.282L187.378 178.35V247.295L125.624 211.342V140.282Z" begin="0s" dur="10s" repeatCount="indefinite"/>
</circle>
<circle cx="0" cy="0" r="4" fill="black">
<animateMotion path="M249.663 141.107L187.486 106L127 141.107L184.948 177.483L249.663 141.107Z" begin="0s" dur="10s" repeatCount="indefinite"/>
</circle>

<circle cx="0" cy="0" r="5" fill="black">
<animateMotion path="M120.595 62.0289L186.532 44.3611L252.469 62.0289L300.738 110.298L318.406 176.235L300.738 242.172L252.469 290.441L186.532 308.109L120.595 290.441L72.3263 242.172L54.6585 176.235L72.3263 110.298L120.595 62.0289Z" begin="0s" dur="20s" repeatCount="indefinite"/>
</circle>

</svg>
