<svg width="268" height="280" viewBox="0 0 268 280" fill="none" xmlns="http://www.w3.org/2000/svg">
<path fill-rule="evenodd" clip-rule="evenodd" d="M248.759 278.73H42.5986C43.551 255.933 58.5748 246.193 81.487 245.655C96.6112 207.457 129.75 246.428 132.135 216.213C134.938 180.682 135.743 142.197 135.743 142.197L155.281 142.499C155.281 142.499 156.912 161.526 160.297 207.203C162.698 239.557 187.154 209.551 219.277 229.159C235.492 239.057 234.769 263.002 234.769 263.002C234.769 263.002 248.759 263.654 248.759 278.73Z" fill="#F3F7FF" stroke="#181E3C" stroke-linecap="round" stroke-linejoin="round"/>
<path d="M225.821 278.73H198.456C199.577 274.078 203.149 270.31 207.847 268.878C208.954 268.541 210.125 268.331 211.345 268.275C212.045 268.239 212.741 268.257 213.417 268.323C219.379 268.887 224.362 273.097 225.821 278.73" stroke="#181E3C"/>
<path fill-rule="evenodd" clip-rule="evenodd" d="M181.329 278.73H103.131C102.807 275.85 102.881 272.892 103.39 269.903C103.655 268.349 104.032 266.831 104.507 265.36C109.916 248.704 128.439 237.797 148.153 240.476C152.812 241.11 157.152 242.45 161.062 244.358C174.617 250.957 182.98 264.366 181.329 278.73Z" fill="white"/>
<path d="M181.329 278.73H103.131C102.807 275.85 102.881 272.892 103.39 269.903C103.655 268.349 104.032 266.831 104.507 265.36C109.916 248.704 128.439 237.797 148.153 240.476C152.812 241.11 157.152 242.45 161.062 244.358C174.617 250.957 182.98 264.366 181.329 278.73" stroke="#181E3C"/>
<path d="M119.24 212.488C118.598 216.253 114.662 218.84 110.448 218.267C106.233 217.694 103.337 214.178 103.978 210.413C104.619 206.648 108.555 204.061 112.77 204.634C116.984 205.207 119.881 208.723 119.24 212.488" stroke="#181E3C" stroke-linecap="round" stroke-linejoin="round"/>
<path fill-rule="evenodd" clip-rule="evenodd" d="M113.433 278.73H62.8658C65.0655 268.62 74.4569 261.246 85.5189 260.235C87.6401 260.047 89.8202 260.086 92.0247 260.384C93.2936 260.559 94.5281 260.808 95.7235 261.137C99.0009 262.034 101.97 263.487 104.507 265.36C109.088 268.726 112.282 273.452 113.433 278.73Z" fill="white"/>
<path d="M113.433 278.73H62.8658C65.0655 268.62 74.4569 261.246 85.5189 260.235C87.6401 260.047 89.8202 260.086 92.0247 260.384C93.2936 260.559 94.5281 260.808 95.7235 261.137C99.0009 262.034 101.97 263.487 104.507 265.36C109.088 268.726 112.282 273.452 113.433 278.73" stroke="#181E3C"/>
<path d="M175.28 213.795C175.015 215.349 173.391 216.417 171.652 216.181C169.912 215.944 168.717 214.493 168.982 212.939C169.246 211.385 170.871 210.317 172.61 210.554C174.349 210.791 175.544 212.241 175.28 213.795" stroke="#181E3C"/>
<path d="M266.915 261.108C266.304 264.693 262.556 267.158 258.542 266.612C254.528 266.067 251.769 262.718 252.38 259.132C252.991 255.547 256.74 253.082 260.754 253.628C264.768 254.173 267.526 257.523 266.915 261.108" stroke="#181E3C"/>
<path d="M15.6196 253.601C15.0087 257.187 11.2599 259.651 7.24619 259.106C3.23244 258.56 0.47381 255.211 1.08472 251.625C1.69562 248.04 5.44434 245.576 9.45809 246.121C13.4718 246.667 16.2305 250.016 15.6196 253.601" stroke="#181E3C"/>
<path d="M71.8521 229.454C71.4594 231.619 69.0491 233.107 66.4684 232.778C63.8878 232.449 62.1141 230.426 62.5069 228.261C62.8996 226.095 65.3099 224.607 67.8906 224.936C70.4713 225.266 72.2449 227.288 71.8521 229.454" stroke="#181E3C"/>
<path d="M159.24 143.772H133.313L123.515 125.322H169.038L159.24 143.772Z" fill="white" stroke="#181E3C" stroke-linecap="round" stroke-linejoin="round"/>
<path d="M169.616 125.322H122.937C120.231 125.322 118.038 123.363 118.038 120.946C118.038 118.529 120.231 116.57 122.937 116.57H169.616C172.321 116.57 174.515 118.529 174.515 120.946C174.515 123.363 172.321 125.322 169.616 125.322Z" stroke="#181E3C" stroke-linecap="round" stroke-linejoin="round"/>
<path d="M105.143 174.354C108.945 176.235 111.74 179.755 112.303 183.963C112.365 184.428 112.399 184.889 112.408 185.346C112.444 187.416 109.644 188.323 108.29 186.682C106.744 184.81 104.697 183.73 102.556 183.907C98.4479 184.246 95.5526 189.086 96.0876 194.719C96.0885 194.731 96.0895 194.743 96.091 194.755C96.2546 196.434 94.4155 197.647 92.7944 196.899C88.6881 195.005 85.7075 191.222 85.274 186.657C84.7552 181.197 88.038 176.24 93.0845 174.056V84.9974C88.8143 82.8574 85.9117 78.6556 85.9117 73.8223C85.9117 68.5663 89.3442 64.057 94.2351 62.1339C96.0064 58.9029 99.6181 56.6775 103.761 56.6775H188.442C192.216 56.6775 195.549 58.5239 197.452 61.2949C203.683 60.3791 209.962 63.615 212.288 69.3269C214.799 75.4908 211.813 82.341 205.59 85.1959V175.063C210.09 177.521 212.853 182.292 212.222 187.429C211.664 191.982 208.58 195.692 204.423 197.488C202.781 198.197 200.977 196.94 201.186 195.266C201.188 195.254 201.189 195.242 201.191 195.23C201.881 189.612 199.12 184.704 195.023 184.267C192.887 184.04 190.81 185.071 189.214 186.904C187.815 188.513 185.04 187.539 185.134 185.471C185.154 185.015 185.202 184.554 185.276 184.091C186.002 179.6 189.266 175.96 193.531 174.3V91.6975C192.016 92.468 190.282 92.9065 188.442 92.9065H105.143V174.354V174.354Z" stroke="#181E3C" stroke-linecap="round" stroke-linejoin="round"/>
<path fill-rule="evenodd" clip-rule="evenodd" d="M147.503 83.1406C144.27 83.1406 141.625 80.6762 141.625 77.6642V70.6141C141.625 67.6021 144.27 65.1377 147.503 65.1377H180.023C183.257 65.1377 185.902 67.6021 185.902 70.6141V77.6642C185.902 80.6762 183.257 83.1406 180.023 83.1406H147.503Z" stroke="#181E3C" stroke-linecap="round" stroke-linejoin="round"/>
<path fill-rule="evenodd" clip-rule="evenodd" d="M146.311 74.1392C146.311 77.5884 149.312 80.3845 153.015 80.3845C156.717 80.3845 159.719 77.5884 159.719 74.1392C159.719 70.69 156.717 67.8943 153.015 67.8943C149.312 67.8943 146.311 70.69 146.311 74.1392Z" stroke="#181E3C" stroke-linecap="round" stroke-linejoin="round"/>
<path fill-rule="evenodd" clip-rule="evenodd" d="M164.709 74.1392C164.709 77.5884 167.711 80.3845 171.413 80.3845C175.116 80.3845 178.117 77.5884 178.117 74.1392C178.117 70.69 175.116 67.8943 171.413 67.8943C167.711 67.8943 164.709 70.69 164.709 74.1392Z" stroke="#181E3C" stroke-linecap="round" stroke-linejoin="round"/>
<path fill-rule="evenodd" clip-rule="evenodd" d="M193.531 174.11V91.7259C194.966 90.4734 195.925 89.5655 196.408 89.0023C197.15 88.1377 197.789 87.3013 198.173 86.8608C198.274 86.7447 198.391 86.5509 198.415 86.5101C198.438 86.4692 198.432 86.4664 198.474 86.4695C198.903 86.5005 199.2 86.5101 199.561 86.5101C200.397 86.5101 201.414 86.4229 202.55 86.1994C202.925 86.1255 203.452 85.9842 204.098 85.7827C204.401 85.6881 204.898 85.4933 205.59 85.1982V174.11H193.531Z" fill="#F3F7FF" stroke="#181E3C" stroke-linecap="round" stroke-linejoin="round"/>
<path fill-rule="evenodd" clip-rule="evenodd" d="M197.452 61.295C203.683 60.3791 209.961 63.6151 212.288 69.327C214.955 75.875 211.419 83.1976 204.39 85.6821C202.427 86.3761 200.399 86.6193 198.437 86.4668C198.884 85.3726 199.129 84.1876 199.129 82.9519V66.6329C199.129 64.6727 198.513 62.8401 197.452 61.295H197.452Z" fill="#F3F7FF" stroke="#181E3C" stroke-linecap="round" stroke-linejoin="round"/>
<path fill-rule="evenodd" clip-rule="evenodd" d="M96.2516 86.1347C96.3491 86.155 96.4489 86.1741 96.5511 86.1919C96.9309 86.2577 97.372 86.344 97.8728 86.4111C98.4142 86.4721 98.9653 86.5035 99.5244 86.5035C107.043 86.5035 113.137 80.8258 113.137 73.8223C113.137 66.8188 107.043 61.1411 99.5244 61.1411C97.6484 61.1411 95.861 61.4946 94.2349 62.134C96.0061 58.9029 99.6178 56.6775 103.76 56.6775H117.169C133.119 56.6775 133.12 92.9066 117.169 92.9066H105.143V174.111H93.0842V85.0027C93.1683 85.0437 93.2507 85.0832 93.3315 85.1214L93.3307 85.118C94.2488 85.5557 95.2274 85.8992 96.2516 86.1347Z" fill="#F3F7FF" stroke="#181E3C" stroke-linecap="round" stroke-linejoin="round"/>
<path fill-rule="evenodd" clip-rule="evenodd" d="M193.531 163.754H205.59H193.531Z" stroke="#181E3C" stroke-linecap="round" stroke-linejoin="round"/>
<path fill-rule="evenodd" clip-rule="evenodd" d="M193.531 154.171H205.59H193.531Z" stroke="#181E3C" stroke-linecap="round" stroke-linejoin="round"/>
<path fill-rule="evenodd" clip-rule="evenodd" d="M193.531 144.587H205.59H193.531Z" stroke="#181E3C" stroke-linecap="round" stroke-linejoin="round"/>
<path fill-rule="evenodd" clip-rule="evenodd" d="M193.531 135.003H205.59H193.531Z" stroke="#181E3C" stroke-linecap="round" stroke-linejoin="round"/>
<path fill-rule="evenodd" clip-rule="evenodd" d="M193.531 125.42H205.59H193.531Z" stroke="#181E3C" stroke-linecap="round" stroke-linejoin="round"/>
<path fill-rule="evenodd" clip-rule="evenodd" d="M193.531 115.835H205.59H193.531Z" stroke="#181E3C" stroke-linecap="round" stroke-linejoin="round"/>
<path fill-rule="evenodd" clip-rule="evenodd" d="M193.531 106.252H205.59H193.531Z" stroke="#181E3C" stroke-linecap="round" stroke-linejoin="round"/>
<path fill-rule="evenodd" clip-rule="evenodd" d="M193.531 96.668H205.59H193.531Z" stroke="#181E3C" stroke-linecap="round" stroke-linejoin="round"/>
<path fill-rule="evenodd" clip-rule="evenodd" d="M93.084 163.754H105.143H93.084Z" stroke="#181E3C" stroke-linecap="round" stroke-linejoin="round"/>
<path fill-rule="evenodd" clip-rule="evenodd" d="M93.084 154.171H105.143H93.084Z" stroke="#181E3C" stroke-linecap="round" stroke-linejoin="round"/>
<path fill-rule="evenodd" clip-rule="evenodd" d="M93.084 144.587H105.143H93.084Z" stroke="#181E3C" stroke-linecap="round" stroke-linejoin="round"/>
<path fill-rule="evenodd" clip-rule="evenodd" d="M93.084 135.003H105.143H93.084Z" stroke="#181E3C" stroke-linecap="round" stroke-linejoin="round"/>
<path fill-rule="evenodd" clip-rule="evenodd" d="M93.084 125.42H105.143H93.084Z" stroke="#181E3C" stroke-linecap="round" stroke-linejoin="round"/>
<path fill-rule="evenodd" clip-rule="evenodd" d="M93.084 115.835H105.143H93.084Z" stroke="#181E3C" stroke-linecap="round" stroke-linejoin="round"/>
<path fill-rule="evenodd" clip-rule="evenodd" d="M93.084 106.252H105.143H93.084Z" stroke="#181E3C" stroke-linecap="round" stroke-linejoin="round"/>
<path fill-rule="evenodd" clip-rule="evenodd" d="M93.084 96.668H105.143H93.084Z" stroke="#181E3C" stroke-linecap="round" stroke-linejoin="round"/>
<path fill-rule="evenodd" clip-rule="evenodd" d="M137.141 116.471H154.158V92.6719H137.141V116.471Z" stroke="#181E3C" stroke-linecap="round" stroke-linejoin="round"/>
<path d="M180.59 23.9313H165.665" stroke="#181E3C" stroke-linecap="round" stroke-linejoin="round"/>
<path d="M135.031 4.96997C132.193 4.96997 129.871 7.13267 129.871 9.77637" stroke="#181E3C" stroke-linecap="round" stroke-linejoin="round"/>
<path d="M112.911 23.9313H131.268" stroke="#181E3C" stroke-linecap="round" stroke-linejoin="round"/>
<path d="M179.902 49.6043C182.612 49.7842 184.751 51.8895 184.751 54.4599V56.6482H115.065V54.4599C115.065 51.8895 117.203 49.7842 119.913 49.6043V48.7375C119.913 45.7747 122.237 43.293 125.271 42.7958V7.06197C125.271 3.72773 128.199 1 131.778 1H168.038C171.617 1 174.545 3.72773 174.545 7.06197V42.7958C177.579 43.2931 179.902 45.7747 179.902 48.7375V49.6043Z" fill="#F3F7FF" stroke="#181E3C" stroke-linecap="round" stroke-linejoin="round"/>
<path d="M190.964 23.9309C190.964 27.1834 188.134 29.8203 184.642 29.8203C181.151 29.8203 178.32 27.1834 178.32 23.9309C178.32 20.6784 181.151 18.042 184.642 18.042C188.134 18.042 190.964 20.6784 190.964 23.9309Z" stroke="#181E3C" stroke-linecap="round" stroke-linejoin="round"/>
<path d="M106.776 23.9309C106.776 20.6784 109.606 18.042 113.098 18.042C116.589 18.042 119.42 20.6784 119.42 23.9309C119.42 27.1834 116.589 29.8203 113.098 29.8203C109.606 29.8203 106.776 27.1834 106.776 23.9309Z" stroke="#181E3C" stroke-linecap="round" stroke-linejoin="round"/>
<path opacity="0.400065" fill-rule="evenodd" clip-rule="evenodd" d="M119.913 49.6041V48.1006C120.197 45.3743 122.827 42.7051 126.389 42.7051H173.427C176.988 42.7051 179.508 45.1692 179.902 47.9041V49.6041C182.612 49.7841 184.751 51.8893 184.751 54.4597V56.6479H115.065V54.4597C115.065 51.8893 117.203 49.7841 119.913 49.6041V49.6041Z" stroke="#181E3C" stroke-linecap="round" stroke-linejoin="round"/>
<path opacity="0.400065" fill-rule="evenodd" clip-rule="evenodd" d="M190.964 23.9309C190.964 27.1834 188.134 29.8203 184.642 29.8203C181.151 29.8203 178.32 27.1834 178.32 23.9309C178.32 20.6784 181.151 18.042 184.642 18.042C188.134 18.042 190.964 20.6784 190.964 23.9309Z" stroke="#181E3C" stroke-linecap="round" stroke-linejoin="round"/>
<path opacity="0.400065" fill-rule="evenodd" clip-rule="evenodd" d="M106.776 23.9309C106.776 20.6784 109.606 18.042 113.098 18.042C116.589 18.042 119.42 20.6784 119.42 23.9309C119.42 27.1834 116.589 29.8203 113.098 29.8203C109.606 29.8203 106.776 27.1834 106.776 23.9309Z" stroke="#181E3C" stroke-linecap="round" stroke-linejoin="round"/>
<path d="M120.326 49.749H179.756" stroke="#181E3C" stroke-linecap="round" stroke-linejoin="round"/>
<path d="M135.414 33.5354H174.545" stroke="#181E3C" stroke-linecap="round" stroke-linejoin="round"/>
<path d="M145.641 16.207C142.883 18.3217 142.488 22.1192 144.758 24.6885C147.028 27.2578 151.104 27.6261 153.863 25.5113C156.621 23.3965 157.016 19.5991 154.746 17.0298C152.476 14.4604 148.399 14.0922 145.641 16.207" stroke="#181E3C" stroke-linecap="round" stroke-linejoin="round"/>
<path d="M149.097 18.7865C147.831 19.7582 147.649 21.5025 148.692 22.6832C149.735 23.8635 151.607 24.0328 152.874 23.0611C154.141 22.0895 154.323 20.3451 153.28 19.1644C152.237 17.9842 150.364 17.8149 149.097 18.7865" stroke="#181E3C" stroke-linecap="round" stroke-linejoin="round"/>
<path d="M162.656 16.207C159.898 18.3217 159.502 22.1192 161.772 24.6885C164.043 27.2578 168.119 27.6261 170.877 25.5113C173.635 23.3965 174.031 19.5991 171.76 17.0298C169.49 14.4604 165.414 14.0922 162.656 16.207" stroke="#181E3C" stroke-linecap="round" stroke-linejoin="round"/>
<path d="M166.112 18.7865C164.845 19.7582 164.663 21.5025 165.706 22.6832C166.749 23.8635 168.622 24.0328 169.889 23.0611C171.156 22.0895 171.338 20.3451 170.295 19.1644C169.252 17.9842 167.379 17.8149 166.112 18.7865" stroke="#181E3C" stroke-linecap="round" stroke-linejoin="round"/>
</svg>
