<svg width="255" height="344" viewBox="0 0 255 344" fill="none" xmlns="http://www.w3.org/2000/svg">
<rect x="37.5" y="151.5" width="179" height="179" rx="9.5" fill="#F3F7FF" stroke="black"/>
<rect x="50.5" y="164.5" width="153" height="153" rx="9.5" fill="white" stroke="black"/>
<rect x="57.5" y="171.5" width="139" height="139" rx="9.5" fill="white" stroke="black" stroke-dasharray="4 4"/>
<rect x="113.5" y="227.5" width="27" height="27" fill="#F3F7FF" stroke="#181E3C"/>
<rect x="118.5" y="232.5" width="17" height="17" fill="#F3F7FF" stroke="#181E3C"/>
<path d="M226.978 110.281C230.347 106.221 236.29 105.476 240.556 108.58L254 118.361L240.721 128.365C236.403 131.618 230.281 130.85 226.9 126.632L220.272 118.361L226.978 110.281Z" fill="#F3F7FF"/>
<path d="M254 118.361L220.272 118.361M254 118.361L240.721 128.365C236.403 131.618 230.281 130.85 226.9 126.632L220.272 118.361M254 118.361L240.556 108.58C236.29 105.476 230.347 106.221 226.978 110.281L220.272 118.361M220.272 118.361L185.002 118.361C177.771 118.361 170.835 121.234 165.722 126.348V126.348C160.609 131.461 157.737 138.396 157.737 145.627L157.737 151.336" stroke="black"/>
<path d="M190.968 18.9835C190.532 14.2928 193.429 9.93384 197.922 8.51908L221.804 1L214.632 24.9785C213.248 29.6051 208.756 32.5819 203.956 32.0528L192.062 30.7418L190.968 18.9835Z" fill="#F3F7FF"/>
<path d="M221.804 1L192.062 30.7418M221.804 1L214.632 24.9785C213.248 29.6051 208.756 32.5819 203.956 32.0528L192.062 30.7418M221.804 1L197.922 8.51908C193.429 9.93384 190.532 14.2928 190.968 18.9835L192.062 30.7418M192.062 30.7418L182.071 40.733C170.714 52.09 164.333 67.4934 164.333 83.5546V91.4523C164.333 102.457 159.962 113.01 152.181 120.792V120.792C144.399 128.573 140.028 139.127 140.028 150.131V151.333" stroke="black"/>
<path d="M147.218 36.513C146.782 31.8224 149.679 27.4634 154.172 26.0486L178.054 18.5295L170.882 42.508C169.498 47.1347 165.006 50.1115 160.206 49.5824L148.312 48.2714L147.218 36.513Z" fill="#F3F7FF"/>
<path d="M178.054 18.5295L148.312 48.2714M178.054 18.5295L170.882 42.508C169.498 47.1347 165.006 50.1115 160.206 49.5824L148.312 48.2714M178.054 18.5295L154.172 26.0486C149.679 27.4634 146.782 31.8224 147.218 36.513L148.312 48.2714M148.312 48.2714V48.2714C137.672 58.9113 131.694 73.342 131.694 88.3891V151.331" stroke="black"/>
<path d="M189.196 79.3782C185.367 75.8534 184.882 69.9812 188.08 65.8756L197.722 53.499L207.581 65.7222C210.932 69.8757 210.43 75.928 206.442 79.4737L197.722 87.227L189.196 79.3782Z" fill="#F3F7FF"/>
<path d="M197.722 53.499L197.722 87.227M197.722 53.499L207.581 65.7222C210.932 69.8757 210.43 75.928 206.442 79.4737L197.722 87.227M197.722 53.499L188.08 65.8756C184.882 69.9812 185.367 75.8534 189.196 79.3782L197.722 87.227M197.722 87.227V87.227C197.722 96.5883 192.127 105.043 183.51 108.702L173.389 113C158.636 119.265 149.055 133.741 149.055 149.769L149.055 152.027" stroke="black"/>
<circle cx="183" cy="209.945" r="2.77778" fill="#F3F7FF" stroke="black"/>
<circle cx="181.222" cy="232.556" r="2.77778" fill="#F3F7FF" stroke="black"/>
<circle cx="160.389" cy="243.667" r="2.77778" fill="#F3F7FF" stroke="black"/>
<circle cx="147.972" cy="221.445" r="2.77778" fill="#F3F7FF" stroke="black"/>
<path d="M158.389 172V185.333L180.611 207.556" stroke="black"/>
<path d="M150.667 171.5V187.408L164.556 200.958V216.583L179.139 231.167" stroke="black"/>
<path d="M142.333 171V188.111L160.389 206.167V241.583" stroke="black"/>
<path d="M132 171.5V181.556V187.111L147.972 203.083V218.361" stroke="black"/>
<circle cx="64.7778" cy="272.5" r="2.77778" transform="rotate(180 64.7778 272.5)" fill="#F3F7FF" stroke="black"/>
<circle cx="66.5555" cy="249.889" r="2.77778" transform="rotate(180 66.5555 249.889)" fill="#F3F7FF" stroke="black"/>
<circle cx="87.3888" cy="238.778" r="2.77778" transform="rotate(180 87.3888 238.778)" fill="#F3F7FF" stroke="black"/>
<circle cx="99.8055" cy="261" r="2.77778" transform="rotate(180 99.8055 261)" fill="#F3F7FF" stroke="black"/>
<path d="M89.3888 310.444L89.3888 297.111L67.1666 274.889" stroke="black"/>
<path d="M97.1111 310.944L97.1111 295.036L83.2222 281.486L83.2222 265.861L68.6389 251.278" stroke="black"/>
<path d="M105.444 311.444L105.444 294.333L87.3889 276.278L87.3889 240.861" stroke="black"/>
<path d="M115.778 310.944L115.778 300.889L115.778 295.333L99.8055 279.361L99.8055 264.083" stroke="black"/>
<circle r="2.77778" transform="matrix(1 8.74228e-08 8.74228e-08 -1 171 272.5)" fill="#F3F7FF" stroke="black"/>
<circle r="2.77778" transform="matrix(1 8.74228e-08 8.74228e-08 -1 169.222 249.889)" fill="#F3F7FF" stroke="black"/>
<circle r="2.77778" transform="matrix(1 8.74228e-08 8.74228e-08 -1 148.389 238.778)" fill="#F3F7FF" stroke="black"/>
<circle r="2.77778" transform="matrix(1 8.74228e-08 8.74228e-08 -1 135.972 261)" fill="#F3F7FF" stroke="black"/>
<path d="M146.389 310.444L146.389 297.111L168.611 274.889" stroke="black"/>
<path d="M138.667 310.944L138.667 295.036L152.556 281.486L152.556 265.861L167.139 251.278" stroke="black"/>
<path d="M130.333 311.444L130.333 294.333L148.389 276.278L148.389 240.861" stroke="black"/>
<path d="M120 310.944L120 300.889L120 295.333L135.972 279.361L135.972 264.083" stroke="black"/>
<path d="M28.0223 110.281C24.6532 106.221 18.7097 105.476 14.4436 108.58L0.999972 118.361L14.2794 128.365C18.5974 131.618 24.7188 130.85 28.0997 126.632L34.7279 118.361L28.0223 110.281Z" fill="#F3F7FF"/>
<path d="M0.999972 118.361L34.7279 118.361M0.999972 118.361L14.2794 128.365C18.5974 131.618 24.7188 130.85 28.0997 126.632L34.7279 118.361M0.999972 118.361L14.4436 108.58C18.7097 105.476 24.6532 106.221 28.0223 110.281L34.7279 118.361M34.7279 118.361L69.9976 118.361C77.2292 118.361 84.1646 121.234 89.278 126.348V126.348C94.391 131.461 97.2635 138.396 97.2634 145.627L97.2634 151.336" stroke="black"/>
<path d="M64.0317 27.9835C64.468 23.2928 61.5713 18.9338 57.0779 17.5191L33.1964 10L40.368 33.9785C41.7518 38.6051 46.2442 41.5819 51.0443 41.0528L62.9382 39.7418L64.0317 27.9835Z" fill="#F3F7FF"/>
<path d="M33.1964 10L62.9382 39.7418M33.1964 10L40.368 33.9785C41.7518 38.6051 46.2442 41.5819 51.0443 41.0528L62.9382 39.7418M33.1964 10L57.0779 17.5191C61.5713 18.9338 64.468 23.2928 64.0317 27.9835L62.9382 39.7418M62.9382 39.7418L76.1113 52.915C85.4309 62.2346 90.6666 74.8747 90.6666 88.0546V91.4523C90.6666 102.457 95.0381 113.01 102.819 120.792V120.792C110.601 128.573 114.972 139.127 114.972 150.131V151.333" stroke="black"/>
<path d="M112.782 55.513C113.218 50.8224 110.321 46.4634 105.828 45.0486L81.9464 37.5295L89.118 61.508C90.5018 66.1347 94.9942 69.1115 99.7943 68.5824L111.688 67.2714L112.782 55.513Z" fill="#F3F7FF"/>
<path d="M81.9464 37.5295L111.688 67.2714M81.9464 37.5295L89.118 61.508C90.5018 66.1347 94.9942 69.1115 99.7943 68.5824L111.688 67.2714M81.9464 37.5295L105.828 45.0486C110.321 46.4634 113.218 50.8224 112.782 55.513L111.688 67.2714M111.688 67.2714V67.2714C119.25 78.0878 123.306 90.9666 123.306 104.164V151.331" stroke="black"/>
<path d="M67.8037 84.3782C71.6326 80.8534 72.1179 74.9812 68.9196 70.8756L59.278 58.499L49.4187 70.7222C46.0685 74.8757 46.5698 80.928 50.5577 84.4737L59.278 92.227L67.8037 84.3782Z" fill="#F3F7FF"/>
<path d="M59.278 58.499L59.278 92.227M59.278 58.499L49.4187 70.7222C46.0685 74.8757 46.5698 80.928 50.5577 84.4737L59.278 92.227M59.278 58.499L68.9196 70.8756C72.1179 74.9812 71.6326 80.8534 67.8037 84.3782L59.278 92.227M59.278 92.227V92.227C61.7784 101.879 68.9186 109.653 78.3233 112.963L81.5323 114.092C95.6503 119.062 105.276 132.181 105.78 147.139L105.945 152.027" stroke="black"/>
<circle r="2.77778" transform="matrix(-1 0 0 1 72.0001 209.945)" fill="#F3F7FF" stroke="black"/>
<circle r="2.77778" transform="matrix(-1 0 0 1 73.7778 232.556)" fill="#F3F7FF" stroke="black"/>
<circle r="2.77778" transform="matrix(-1 0 0 1 94.6111 243.667)" fill="#F3F7FF" stroke="black"/>
<circle r="2.77778" transform="matrix(-1 0 0 1 107.028 221.445)" fill="#F3F7FF" stroke="black"/>
<path d="M96.6111 172V185.333L74.3889 207.556" stroke="black"/>
<path d="M104.333 171.5V187.408L90.4445 200.958V216.583L75.8612 231.167" stroke="black"/>
<path d="M112.667 171V188.111L94.6112 206.167V241.583" stroke="black"/>
<path d="M123 171.5V181.556V187.111L107.028 203.083V218.361" stroke="black"/>
<line x1="216" y1="169.5" x2="229" y2="169.5" stroke="black"/>
<line x1="216" y1="201.5" x2="229" y2="201.5" stroke="black"/>
<line x1="216" y1="233.5" x2="229" y2="233.5" stroke="black"/>
<line x1="216" y1="265.5" x2="229" y2="265.5" stroke="black"/>
<line x1="216" y1="297.5" x2="229" y2="297.5" stroke="black"/>
<line x1="216" y1="185.5" x2="229" y2="185.5" stroke="black"/>
<line x1="216" y1="217.5" x2="229" y2="217.5" stroke="black"/>
<line x1="216" y1="249.5" x2="229" y2="249.5" stroke="black"/>
<line x1="216" y1="281.5" x2="229" y2="281.5" stroke="black"/>
<line x1="216" y1="313.5" x2="229" y2="313.5" stroke="black"/>
<line x1="198.5" y1="331" x2="198.5" y2="344" stroke="black"/>
<line x1="166.5" y1="331" x2="166.5" y2="344" stroke="black"/>
<line x1="134.5" y1="331" x2="134.5" y2="344" stroke="black"/>
<line x1="102.5" y1="331" x2="102.5" y2="344" stroke="black"/>
<line x1="70.5" y1="331" x2="70.5" y2="344" stroke="black"/>
<line x1="182.5" y1="331" x2="182.5" y2="344" stroke="black"/>
<line x1="150.5" y1="331" x2="150.5" y2="344" stroke="black"/>
<line x1="118.5" y1="331" x2="118.5" y2="344" stroke="black"/>
<line x1="86.5" y1="331" x2="86.5" y2="344" stroke="black"/>
<line x1="54.5" y1="331" x2="54.5" y2="344" stroke="black"/>
<line x1="196.5" y1="138" x2="196.5" y2="151" stroke="black"/>
<line x1="68.5" y1="138" x2="68.5" y2="151" stroke="black"/>
<line x1="180.5" y1="138" x2="180.5" y2="151" stroke="black"/>
<line x1="84.5" y1="138" x2="84.5" y2="151" stroke="black"/>
<line x1="52.5" y1="138" x2="52.5" y2="151" stroke="black"/>
<line x1="24" y1="169.5" x2="37" y2="169.5" stroke="black"/>
<line x1="24" y1="201.5" x2="37" y2="201.5" stroke="black"/>
<line x1="24" y1="233.5" x2="37" y2="233.5" stroke="black"/>
<line x1="24" y1="265.5" x2="37" y2="265.5" stroke="black"/>
<line x1="24" y1="297.5" x2="37" y2="297.5" stroke="black"/>
<line x1="24" y1="185.5" x2="37" y2="185.5" stroke="black"/>
<line x1="24" y1="217.5" x2="37" y2="217.5" stroke="black"/>
<line x1="24" y1="249.5" x2="37" y2="249.5" stroke="black"/>
<line x1="24" y1="281.5" x2="37" y2="281.5" stroke="black"/>
<line x1="24" y1="313.5" x2="37" y2="313.5" stroke="black"/>
</svg>
