<svg width="80" height="80" viewBox="0 0 80 80" fill="none" xmlns="http://www.w3.org/2000/svg">
<g clip-path="url(#clip0)">
<path d="M33.3506 29.9216L34.2639 28.65C42.5363 17.132 55.6842 10.1035 69.8569 9.62305C69.3764 23.7958 62.348 36.9437 50.8299 45.2161L49.5583 46.1294C46.315 48.4587 41.8619 48.096 39.0383 45.2724L34.2075 40.4417C31.384 37.6181 31.0212 33.1649 33.3506 29.9216Z" stroke="#181E3C" stroke-linecap="round" stroke-linejoin="round"/>
<path d="M54 13.0002L66.5 25.5002" stroke="#181E3C"/>
<path d="M43.8394 19.0551L27.4709 22.7631L21.9999 28.2341L32.2311 31.2965" stroke="#181E3C"/>
<path d="M60.8681 35.1973L57.1601 51.5659L51.6892 57.0368L48.6267 46.8056" stroke="#181E3C"/>
<circle cx="48.1442" cy="30.8927" r="5.95333" transform="rotate(45 48.1442 30.8927)" stroke="#181E3C"/>
<path d="M28.4558 40.4749V40.4749C19.5144 46.2472 13.2338 55.3368 10.9972 65.7419L10.4246 68.4056M10.4246 68.4056L13.0883 67.833C23.4934 65.5964 32.583 59.3158 38.3553 50.3744V50.3744M10.4246 68.4056L28.4558 50.3744" stroke="#181E3C"/>
</g>
<defs>
<clipPath id="clip0">
<rect width="80" height="80" fill="white"/>
</clipPath>
</defs>
</svg>
