<svg width="80" height="80" viewBox="0 0 80 80" fill="none" xmlns="http://www.w3.org/2000/svg">
<path d="M51 49C51 45.134 54.134 42 58 42H73V56H58C54.134 56 51 52.866 51 49V49Z" stroke="#181E3C"/>
<circle cx="58" cy="49" r="3" stroke="#181E3C"/>
<path d="M53 27V15C53 11.6863 55.6863 9 59 9H62" stroke="#181E3C"/>
<path d="M41 27L41 13" stroke="#181E3C"/>
<circle cx="65" cy="9" r="3" stroke="#181E3C"/>
<circle cx="41" cy="10" r="3" stroke="#181E3C"/>
<path d="M29 27V14C29 11.2386 26.7614 9 24 9H21" stroke="#181E3C"/>
<circle r="3" transform="matrix(-1 0 0 1 18 9)" stroke="#181E3C"/>
<path d="M73 23V23C73 20.7909 71.2091 19 69 19H10C7.79086 19 6 20.7909 6 23V23M73 23V23C73 25.2091 71.2091 27 69 27H10C7.79086 27 6 25.2091 6 23V23M73 23V71.5C73 73.7091 71.2091 75.5 69 75.5H10C7.79086 75.5 6 73.7091 6 71.5V23" stroke="#181E3C"/>
</svg>
