<svg width="80" height="80" viewBox="0 0 80 80" fill="none" xmlns="http://www.w3.org/2000/svg">
<rect x="3" y="64" width="52" height="74" transform="rotate(-90 3 64)" stroke="#181E3C"/>
<path d="M14.6673 18.705L15.913 19.0235C21.1049 20.3512 26.5473 20.3512 31.7391 19.0235C36.931 17.6959 42.3734 17.6959 47.5652 19.0235C52.757 20.3512 58.1995 20.3512 63.3913 19.0235L65.4814 18.489C68.2494 17.7812 70.8456 20.1197 70.4299 22.9463L69.6304 28.3824L69.3268 28.9916C65.9974 35.6705 66.435 43.6098 70.4783 49.8824L71.3906 53.543C72.1203 56.4703 69.4701 59.1209 66.5427 58.3918L64.875 57.9765C59.5398 56.6477 53.9602 56.6477 48.625 57.9765C43.2898 59.3052 37.7102 59.3052 32.375 57.9765C27.0398 56.6477 21.4602 56.6477 16.125 57.9765L15.1053 58.2304C12.1245 58.9728 9.548 56.0414 10.6668 53.1805L11.9565 49.8824C16.6818 43.8736 16.9182 35.4804 12.5387 29.2152L11.9565 28.3824L10.2595 23.5003C9.29178 20.7163 11.8117 17.9747 14.6673 18.705Z" stroke="#181E3C"/>
<path d="M16 64L10.3537 71.1519C9.75877 71.9056 10.4646 72.983 11.3931 72.7387L18 71L22.0686 74.2549C22.5544 74.6435 23.2733 74.499 23.5712 73.9528L29 64" stroke="#181E3C"/>
<path d="M64 64L69.5908 72.1999C70.1523 73.0234 69.2952 74.0717 68.3766 73.6849L62 71L57.9314 74.2549C57.4456 74.6435 56.7267 74.499 56.4288 73.9528L51 64" stroke="#181E3C"/>
<circle cx="40.5" cy="38.5" r="10" stroke="#181E3C"/>
</svg>
