<svg width="25" height="24" viewBox="0 0 25 24" fill="none" xmlns="http://www.w3.org/2000/svg">
<g clip-path="url(#clip0)">
<path d="M24.3528 4.56975C23.4545 4.96463 22.5031 5.22541 21.5291 5.34375C22.5558 4.72747 23.3245 3.76 23.6928 2.6205C22.7216 3.18375 21.6646 3.58381 20.5638 3.80475C19.8236 3.01384 18.843 2.48934 17.7743 2.31262C16.7055 2.1359 15.6083 2.31684 14.6529 2.82737C13.6975 3.3379 12.9373 4.14948 12.4902 5.13618C12.0431 6.12289 11.9342 7.22956 12.1803 8.2845C8.09056 8.09325 4.46506 6.12825 2.04031 3.15975C1.59892 3.91041 1.36807 4.76619 1.37206 5.637C1.37146 6.44652 1.57077 7.24366 1.95229 7.95764C2.33381 8.67162 2.88574 9.28034 3.55906 9.72975C2.77878 9.70616 2.01549 9.49605 1.33306 9.117V9.17625C1.33282 10.3125 1.72547 11.4139 2.44445 12.2938C3.16343 13.1736 4.16452 13.7779 5.27806 14.004C4.85626 14.1167 4.42166 14.1744 3.98506 14.1757C3.66931 14.1757 3.36781 14.145 3.06706 14.0895C3.38396 15.0673 3.99781 15.922 4.82319 16.5345C5.64857 17.1471 6.64439 17.4871 7.67206 17.5072C5.93087 18.8708 3.7824 19.6106 1.57081 19.608C1.17909 19.6095 0.78763 19.5875 0.39856 19.542C2.65463 20.9876 5.27833 21.755 7.95781 21.753C17.0081 21.753 21.9536 14.2567 21.9536 7.76475C21.9536 7.55775 21.9536 7.347 21.9378 7.1355C22.9052 6.44216 23.7389 5.57921 24.3986 4.5885L24.3528 4.56975Z" fill="white"/>
</g>
<defs>
<clipPath id="clip0">
<rect x="0.400024" width="24" height="24" fill="white"/>
</clipPath>
</defs>
</svg>
